<svg width="50" height="47" viewBox="0 0 50 47" fill="none" xmlns="http://www.w3.org/2000/svg">
<path d="M39.6994 1H9.67536C9.17871 1.15706 8.18812 1.77439 8.19897 2.98726C8.20983 4.20013 9.18776 4.82175 9.67536 4.98095H39.6994C40.1728 4.84338 41.1332 4.24322 41.1884 2.94316C41.2436 1.64311 40.2188 1.10603 39.6994 1Z" fill="white" stroke="white"/>
<path d="M39.1692 8.99658H28.9241C27.3224 8.99658 26.9024 9.96105 26.8926 10.4433V44.7647C26.8488 45.2615 27.1932 46.2494 28.9206 46.2272C30.6479 46.205 30.9773 45.243 30.9261 44.7647V13.3543H39.1692C39.8355 13.3385 41.1703 12.8803 41.1793 11.1742C41.1884 9.46806 39.843 9.01157 39.1692 8.99658Z" fill="white" stroke="white"/>
<path d="M10.2928 9.16016H20.5915C22.2016 9.16016 22.6238 10.1204 22.6337 10.6005V44.7712C22.6776 45.2657 22.3315 46.2493 20.595 46.2272C18.8586 46.2051 18.5275 45.2473 18.579 44.7712V13.4987H10.2928C9.62299 13.483 8.28119 13.0268 8.27211 11.3282C8.26303 9.62957 9.61543 9.17508 10.2928 9.16016Z" fill="white" stroke="white"/>
<path d="M1 44.649V2.48618C1 1.99347 1.36909 1.00646 2.84544 1.00003C4.32179 0.993607 4.674 1.98812 4.66557 2.48618V44.649C4.65011 45.0714 4.2597 45.9167 2.8217 45.9191C1.3837 45.9216 1.00807 45.0734 1 44.649Z" fill="white" stroke="white"/>
<path d="M45.4318 44.649V2.48618C45.4318 1.99347 45.8008 1.00646 47.2772 1.00003C48.7535 0.993607 49.1058 1.98812 49.0973 2.48618V44.649C49.0819 45.0714 48.6915 45.9167 47.2535 45.9191C45.8155 45.9216 45.4398 45.0734 45.4318 44.649Z" fill="white" stroke="white"/>
<path d="M9.09961 45.1064V18.1315C9.09961 17.8163 9.4687 17.1848 10.945 17.1807C12.4214 17.1766 12.7736 17.8128 12.7652 18.1315V45.1064C12.7497 45.3766 12.3593 45.9174 10.9213 45.9189C9.48331 45.9205 9.10768 45.3779 9.09961 45.1064Z" fill="white" stroke="white"/>
<path d="M36.9955 45.1064V18.1315C36.9955 17.8163 37.3646 17.1848 38.8409 17.1807C40.3173 17.1766 40.6695 17.8128 40.6611 18.1315V45.1064C40.6456 45.3766 40.2552 45.9174 38.8172 45.9189C37.3792 45.9205 37.0036 45.3779 36.9955 45.1064Z" fill="white" stroke="white"/>
</svg>
